<mxfile host="app.diagrams.net" modified="2023-07-02T10:27:45.790Z" agent="Mozilla/5.0 (Windows NT 10.0; Win64; x64) AppleWebKit/537.36 (KHTML, like Gecko) Chrome/114.0.0.0 Safari/537.36" version="21.5.2" etag="xVli11pzwcFkKIuUtBVY" type="github">
  <diagram name="第 1 页" id="hqBxpFP7l9J0N18j-5s4">
    <mxGraphModel>
      <root>
        <mxCell id="0" />
        <mxCell id="1" parent="0" />
      </root>
    </mxGraphModel>
  </diagram>
</mxfile>
